<mxfile host="Electron" modified="2025-03-29T09:45:21.905Z" agent="Mozilla/5.0 (Macintosh; Intel Mac OS X 10_15_7) AppleWebKit/537.36 (KHTML, like Gecko) draw.io/21.3.7 Chrome/112.0.5615.204 Electron/24.5.0 Safari/537.36" etag="q8-68Yx0SoSQvITQ7eCl" version="21.3.7" type="device">
  <diagram name="Page-1" id="INvJpNfNDgcKAQsCiuvB">
    <mxGraphModel dx="1195" dy="765" grid="1" gridSize="10" guides="1" tooltips="1" connect="1" arrows="1" fold="1" page="1" pageScale="1" pageWidth="850" pageHeight="1100" math="0" shadow="0">
      <root>
        <mxCell id="0" />
        <mxCell id="1" parent="0" />
        <mxCell id="4R-D3JIm30S83KzmWGBB-4" style="edgeStyle=orthogonalEdgeStyle;rounded=0;orthogonalLoop=1;jettySize=auto;html=1;" edge="1" parent="1" source="4R-D3JIm30S83KzmWGBB-1" target="4R-D3JIm30S83KzmWGBB-3">
          <mxGeometry relative="1" as="geometry" />
        </mxCell>
        <mxCell id="4R-D3JIm30S83KzmWGBB-1" value="Frontend" style="rounded=0;whiteSpace=wrap;html=1;fillColor=#ffe6cc;strokeColor=#d79b00;" vertex="1" parent="1">
          <mxGeometry x="130" y="130" width="120" height="60" as="geometry" />
        </mxCell>
        <mxCell id="4R-D3JIm30S83KzmWGBB-12" style="edgeStyle=orthogonalEdgeStyle;rounded=0;orthogonalLoop=1;jettySize=auto;html=1;" edge="1" parent="1" source="4R-D3JIm30S83KzmWGBB-2" target="4R-D3JIm30S83KzmWGBB-11">
          <mxGeometry relative="1" as="geometry" />
        </mxCell>
        <mxCell id="4R-D3JIm30S83KzmWGBB-18" style="edgeStyle=orthogonalEdgeStyle;rounded=0;orthogonalLoop=1;jettySize=auto;html=1;" edge="1" parent="1" source="4R-D3JIm30S83KzmWGBB-2" target="4R-D3JIm30S83KzmWGBB-17">
          <mxGeometry relative="1" as="geometry" />
        </mxCell>
        <mxCell id="4R-D3JIm30S83KzmWGBB-2" value="Keycloak" style="rounded=0;whiteSpace=wrap;html=1;fillColor=#dae8fc;strokeColor=#6c8ebf;" vertex="1" parent="1">
          <mxGeometry x="460" y="270" width="120" height="60" as="geometry" />
        </mxCell>
        <mxCell id="4R-D3JIm30S83KzmWGBB-5" style="edgeStyle=orthogonalEdgeStyle;rounded=0;orthogonalLoop=1;jettySize=auto;html=1;" edge="1" parent="1" source="4R-D3JIm30S83KzmWGBB-3" target="4R-D3JIm30S83KzmWGBB-2">
          <mxGeometry relative="1" as="geometry" />
        </mxCell>
        <mxCell id="4R-D3JIm30S83KzmWGBB-6" value="lua scripts" style="edgeLabel;html=1;align=center;verticalAlign=middle;resizable=0;points=[];" vertex="1" connectable="0" parent="4R-D3JIm30S83KzmWGBB-5">
          <mxGeometry x="-0.2952" y="3" relative="1" as="geometry">
            <mxPoint as="offset" />
          </mxGeometry>
        </mxCell>
        <mxCell id="4R-D3JIm30S83KzmWGBB-9" style="edgeStyle=orthogonalEdgeStyle;rounded=0;orthogonalLoop=1;jettySize=auto;html=1;" edge="1" parent="1" source="4R-D3JIm30S83KzmWGBB-3" target="4R-D3JIm30S83KzmWGBB-7">
          <mxGeometry relative="1" as="geometry">
            <Array as="points">
              <mxPoint x="190" y="370" />
              <mxPoint x="120" y="370" />
            </Array>
          </mxGeometry>
        </mxCell>
        <mxCell id="4R-D3JIm30S83KzmWGBB-10" style="edgeStyle=orthogonalEdgeStyle;rounded=0;orthogonalLoop=1;jettySize=auto;html=1;entryX=0.5;entryY=0;entryDx=0;entryDy=0;" edge="1" parent="1" source="4R-D3JIm30S83KzmWGBB-3" target="4R-D3JIm30S83KzmWGBB-8">
          <mxGeometry relative="1" as="geometry">
            <Array as="points">
              <mxPoint x="190" y="370" />
              <mxPoint x="280" y="370" />
            </Array>
          </mxGeometry>
        </mxCell>
        <mxCell id="4R-D3JIm30S83KzmWGBB-3" value="API Gateway" style="rounded=0;whiteSpace=wrap;html=1;fillColor=#d5e8d4;strokeColor=#82b366;" vertex="1" parent="1">
          <mxGeometry x="130" y="270" width="120" height="60" as="geometry" />
        </mxCell>
        <mxCell id="4R-D3JIm30S83KzmWGBB-7" value="Lessons Service" style="rounded=0;whiteSpace=wrap;html=1;fillColor=#fff2cc;strokeColor=#d6b656;" vertex="1" parent="1">
          <mxGeometry x="60" y="420" width="120" height="60" as="geometry" />
        </mxCell>
        <mxCell id="4R-D3JIm30S83KzmWGBB-8" value="Users Service" style="rounded=0;whiteSpace=wrap;html=1;fillColor=#fff2cc;strokeColor=#d6b656;" vertex="1" parent="1">
          <mxGeometry x="220" y="420" width="120" height="60" as="geometry" />
        </mxCell>
        <mxCell id="4R-D3JIm30S83KzmWGBB-14" value="sync user" style="rounded=0;orthogonalLoop=1;jettySize=auto;html=1;entryX=1;entryY=0.5;entryDx=0;entryDy=0;exitX=0;exitY=0.5;exitDx=0;exitDy=0;" edge="1" parent="1" source="4R-D3JIm30S83KzmWGBB-11" target="4R-D3JIm30S83KzmWGBB-8">
          <mxGeometry relative="1" as="geometry" />
        </mxCell>
        <mxCell id="4R-D3JIm30S83KzmWGBB-11" value="Event Listener" style="rounded=0;whiteSpace=wrap;html=1;fillColor=#fff2cc;strokeColor=#d6b656;" vertex="1" parent="1">
          <mxGeometry x="472.5" y="390" width="95" height="40" as="geometry" />
        </mxCell>
        <mxCell id="4R-D3JIm30S83KzmWGBB-13" value="Register event" style="text;html=1;align=center;verticalAlign=middle;resizable=0;points=[];autosize=1;strokeColor=none;fillColor=none;" vertex="1" parent="1">
          <mxGeometry x="520" y="338" width="100" height="30" as="geometry" />
        </mxCell>
        <mxCell id="4R-D3JIm30S83KzmWGBB-15" value="Lessons Service DB" style="shape=cylinder3;whiteSpace=wrap;html=1;boundedLbl=1;backgroundOutline=1;size=15;fillColor=#e1d5e7;strokeColor=#9673a6;" vertex="1" parent="1">
          <mxGeometry x="70" y="500" width="80" height="70" as="geometry" />
        </mxCell>
        <mxCell id="4R-D3JIm30S83KzmWGBB-16" value="user service DB" style="shape=cylinder3;whiteSpace=wrap;html=1;boundedLbl=1;backgroundOutline=1;size=15;fillColor=#e1d5e7;strokeColor=#9673a6;" vertex="1" parent="1">
          <mxGeometry x="240" y="500" width="80" height="70" as="geometry" />
        </mxCell>
        <mxCell id="4R-D3JIm30S83KzmWGBB-17" value="keycloak DB" style="shape=cylinder3;whiteSpace=wrap;html=1;boundedLbl=1;backgroundOutline=1;size=15;fillColor=#e1d5e7;strokeColor=#9673a6;" vertex="1" parent="1">
          <mxGeometry x="640" y="265" width="80" height="70" as="geometry" />
        </mxCell>
      </root>
    </mxGraphModel>
  </diagram>
</mxfile>
